<svg width="12" height="12" viewBox="0 0 12 12" fill="none" xmlns="http://www.w3.org/2000/svg">
<g clip-path="url(#clip0_3969_159707)">
<path d="M7.30111 5.49825L8.14919 4.00292L10.4351 7.70261L10.4361 8.41269L10.4287 3.52681C10.4233 3.40733 10.3623 3.29814 10.2648 3.23356L6.14942 0.773754C6.05321 0.724601 5.9311 0.725206 5.83504 0.775267C5.82194 0.782073 5.80986 0.789332 5.79822 0.797348L5.78381 0.806725L1.78922 3.21238L1.77379 3.21979C1.75385 3.22917 1.73362 3.24142 1.7147 3.25533C1.63888 3.31175 1.58866 3.39523 1.57236 3.48885C1.57003 3.50292 1.56814 3.51744 1.56741 3.53211L1.57367 7.51356L3.70283 4.08429C3.97092 3.62951 4.55499 3.48295 5.09714 3.49097L5.73345 3.50836L1.98396 9.75693L2.42598 10.0213L6.22015 3.51487L7.8974 3.50851L4.11283 10.1792L5.68994 11.1219L5.87842 11.2344C5.95817 11.2681 6.05205 11.2698 6.13253 11.2396L10.3059 8.72652L9.50798 9.20686L7.3014 5.49825H7.30111ZM7.62465 10.341L6.03182 7.74299L7.0042 6.02821L9.09624 9.45475L7.62465 10.341Z" fill="#2D374B"/>
<path d="M6.03165 7.74314L7.62462 10.341L9.09607 9.4549L7.00417 6.02836L6.03179 7.74314H6.03165Z" fill="#28A0F0"/>
<path d="M10.4361 8.41269L10.4351 7.70276L8.14917 4.00307L7.30109 5.4984L9.50782 9.20701L10.3057 8.72652C10.3838 8.66057 10.4313 8.56348 10.4362 8.45897L10.436 8.41269H10.4361Z" fill="#28A0F0"/>
<path d="M0.857147 9.08224L1.9838 9.75693L5.7333 3.50851L5.09698 3.49112C4.55483 3.48311 3.97076 3.62966 3.70267 4.08429L1.57351 7.51356L0.857147 8.65725V9.08224Z" fill="white"/>
<path d="M7.89738 3.50851L6.22013 3.51487L2.42581 10.0213L3.75201 10.8147L4.11266 10.179L7.89738 3.50851Z" fill="white"/>
<path d="M11.1429 3.49973C11.1289 3.13524 10.939 2.8016 10.6415 2.60725L6.47207 0.115693C6.17793 -0.0381205 5.81029 -0.038423 5.51542 0.115693C5.48063 0.133842 1.46086 2.55659 1.46086 2.55659C1.40526 2.58427 1.3517 2.61724 1.3012 2.65474C1.03573 2.85257 0.873885 3.15989 0.857147 3.49747V8.65754L1.57351 7.51385L1.56725 3.5324C1.56813 3.51788 1.56987 3.50336 1.5722 3.4893C1.5885 3.39568 1.63886 3.31219 1.71454 3.25563C1.73347 3.24171 5.82193 0.782368 5.83489 0.775562C5.93109 0.72535 6.05305 0.724744 6.1494 0.774049L10.2648 3.234C10.3622 3.29843 10.4231 3.40778 10.4285 3.52726V8.45926C10.4236 8.56377 10.3839 8.66087 10.3055 8.72681L9.50768 9.20731L9.09594 9.45519L7.62449 10.3413L6.13223 11.2398C6.05189 11.2701 5.95787 11.2683 5.87826 11.2347L4.11267 10.1795L3.75201 10.815L5.33873 11.7642C5.39112 11.7952 5.43784 11.8227 5.47627 11.8451C5.53565 11.8798 5.57625 11.9029 5.59052 11.9102C5.70331 11.9672 5.86545 12.0001 6.01172 12.0001C6.14577 12.0001 6.27646 11.9746 6.40018 11.9242L10.7346 9.3159C10.9833 9.11565 11.1298 8.81347 11.1429 8.48634V3.49973Z" fill="#96BEDC"/>
</g>
<defs>
<clipPath id="clip0_3969_159707">
<rect width="10.2857" height="12" fill="white" transform="translate(0.857147)"/>
</clipPath>
</defs>
</svg>
