<svg width="16" height="16" viewBox="0 0 16 16" fill="none" xmlns="http://www.w3.org/2000/svg">
<g clip-path="url(#clip0_7419_75206)">
<path fill-rule="evenodd" clip-rule="evenodd" d="M7.99999 6.39999C7.11634 6.39999 6.39999 7.11634 6.39999 7.99999C6.39999 8.88365 7.11634 9.59999 7.99999 9.59999C8.88365 9.59999 9.59999 8.88365 9.59999 7.99999C9.59999 7.11634 8.88365 6.39999 7.99999 6.39999ZM4.79999 7.99999C4.79999 6.23268 6.23268 4.79999 7.99999 4.79999C9.7673 4.79999 11.2 6.23268 11.2 7.99999C11.2 9.7673 9.7673 11.2 7.99999 11.2C6.23268 11.2 4.79999 9.7673 4.79999 7.99999Z" fill="#695B51"/>
<path fill-rule="evenodd" clip-rule="evenodd" d="M6.17538 0H9.82461L10.3348 2.04065C10.4114 2.071 10.4871 2.10275 10.5619 2.13578L12.3666 1.05295L14.9471 3.63331L13.8642 5.43812C13.8972 5.51288 13.9289 5.58857 13.9593 5.6652L16 6.17538V9.82461L13.9593 10.3348C13.929 10.4114 13.8972 10.4871 13.8642 10.5619L14.9471 12.3666L12.3666 14.9471L10.5619 13.8642C10.4871 13.8972 10.4114 13.929 10.3348 13.9593L9.82461 16H6.17538L5.66521 13.9593C5.58858 13.929 5.51289 13.8972 5.43813 13.8642L3.63336 14.9471L1.05295 12.3666L2.1358 10.5619C2.10277 10.4871 2.07102 10.4114 2.04066 10.3348L0 9.82461V6.17538L2.04068 5.6652C2.07104 5.58857 2.1028 5.51288 2.13583 5.43812L1.05293 3.63331L3.63336 1.05295L5.4381 2.13579C5.51288 2.10275 5.58858 2.071 5.6652 2.04065L6.17538 0ZM7.42461 1.6L7.00417 3.2817L6.57443 3.41513C6.29806 3.50095 6.02985 3.61484 5.76954 3.75188L5.37125 3.96157L3.88137 3.06765L3.06766 3.88134L3.96158 5.37119L3.75198 5.76946C3.61487 6.02996 3.50091 6.29818 3.41513 6.57443L3.2817 7.00418L1.6 7.42462V8.57538L3.2817 8.99582L3.41513 9.42556C3.50093 9.70187 3.61486 9.97011 3.75193 10.2305L3.96153 10.6288L3.06766 12.1186L3.88139 12.9323L5.3712 12.0385L5.76946 12.2481C6.0299 12.3851 6.29812 12.4991 6.57443 12.5849L7.00418 12.7183L7.42462 14.4H8.57538L8.99582 12.7183L9.42556 12.5849C9.70187 12.4991 9.9701 12.3851 10.2305 12.2481L10.6288 12.0385L12.1186 12.9323L12.9323 12.1186L12.0385 10.6288L12.2481 10.2305C12.3851 9.9701 12.4991 9.70188 12.5849 9.42557L12.7183 8.99582L14.4 8.57538V7.42462L12.7183 7.00418L12.5848 6.57444C12.4991 6.29819 12.3851 6.02996 12.248 5.76946L12.0384 5.37119L12.9323 3.88134L12.1186 3.06765L10.6287 3.96157L10.2304 3.75188C9.97012 3.61484 9.70193 3.50095 9.42556 3.41513L8.99581 3.2817L8.57537 1.6H7.42461Z" fill="#695B51"/>
</g>
<defs>
<clipPath id="clip0_7419_75206">
<rect width="16" height="16" fill="white"/>
</clipPath>
</defs>
</svg>
