<svg width="14" height="14" viewBox="0 0 14 14" fill="none" xmlns="http://www.w3.org/2000/svg">
<path d="M6 10.6667H7.33333V9.33333H6V10.6667ZM6.66667 0C2.98667 0 0 2.98667 0 6.66667C0 10.3467 2.98667 13.3333 6.66667 13.3333C10.3467 13.3333 13.3333 10.3467 13.3333 6.66667C13.3333 2.98667 10.3467 0 6.66667 0ZM6.66667 12C3.72667 12 1.33333 9.60667 1.33333 6.66667C1.33333 3.72667 3.72667 1.33333 6.66667 1.33333C9.60667 1.33333 12 3.72667 12 6.66667C12 9.60667 9.60667 12 6.66667 12ZM6.66667 2.66667C5.19333 2.66667 4 3.86 4 5.33333H5.33333C5.33333 4.6 5.93333 4 6.66667 4C7.4 4 8 4.6 8 5.33333C8 6.66667 6 6.5 6 8.66667H7.33333C7.33333 7.16667 9.33333 7 9.33333 5.33333C9.33333 3.86 8.14 2.66667 6.66667 2.66667Z" fill="#695B51"/>
</svg>
