<svg width="40" height="40" viewBox="0 0 40 40" fill="none" xmlns="http://www.w3.org/2000/svg">
<g clip-path="url(#clip0_649_28477)">
<g clip-path="url(#clip1_649_28477)">
<path d="M29.9909 9.44336H10.0093V27.8598H29.9909V9.44336Z" fill="#B6A28D"/>
<path d="M13.5302 24.7886H10.0093V26.0236H13.5302V24.7886Z" fill="#6B5C53"/>
<path d="M29.9909 24.7886H26.47V26.0236H29.9909V24.7886Z" fill="#6B5C53"/>
<path d="M26.4672 26.6221H13.53V27.8571H26.4672V26.6221Z" fill="#6B5C53"/>
<path d="M24.7068 9.44336H15.2905V11.2413H24.7068V9.44336Z" fill="#312A1D"/>
<path d="M28.2303 14.9816H29.9908V9.44295V7.64502H28.2303H24.7068V9.44295H28.2303V14.9816Z" fill="#312A1D"/>
<path d="M31.7512 14.9819H29.9907V26.0236H31.7512V14.9819Z" fill="#312A1D"/>
<path d="M11.7697 9.44295H15.2907V7.64502H11.7697H10.0093V9.44295V14.9816H11.7697V9.44295Z" fill="#312A1D"/>
<path d="M11.7697 26.0234H10.0093V27.8569H11.7697H13.5302V26.0234H11.7697Z" fill="#312A1D"/>
<path d="M26.4672 27.8569H13.53V29.6904H26.4672V27.8569Z" fill="#312A1D"/>
<path d="M26.47 26.0234V27.8569H28.2304H29.9909V26.0234H28.2304H26.47Z" fill="#312A1D"/>
<path d="M10.0092 14.9819H8.24878V26.0236H10.0092V14.9819Z" fill="#312A1D"/>
<path d="M26.4698 10.0796H25.8926V11.3146H26.4698V11.913H27.6557V11.3146V10.0796H26.4698Z" fill="#6B5C53"/>
<path d="M14.1413 10.0796H13.5667H12.3809V11.3146V11.913H13.5667V11.3146H14.1413V10.0796Z" fill="#6B5C53"/>
<path d="M17.0877 18.0503H15.2905V19.922H17.0877V18.0503Z" fill="#312A1D"/>
<path d="M18.8141 19.8862H17.6282V21.1213H18.8141V19.8862Z" fill="#312A1D"/>
<path d="M22.3717 19.8862H21.1858V21.1213H22.3717V19.8862Z" fill="#312A1D"/>
<path d="M22.3718 23.5534H21.1859V22.955H18.8142V23.5534H17.6283V21.1216H16.4424V25.3869H17.6283V26.0235H18.8142V26.6219H19.3887V27.2231H20.5746V26.6219H21.1859V26.0235H22.3718V25.3869H23.5577V21.1216H22.3718V23.5534Z" fill="#312A1D"/>
<path d="M24.7095 18.0503H22.9124V19.922H24.7095V18.0503Z" fill="#312A1D"/>
<path d="M29.676 29.2203H28.3878V27.876H27.0969V29.2203V30.5619V31.9063V33.2506V34.595H28.3878H29.676H30.9668V33.2506V31.9063V30.5619V29.2203H29.676Z" fill="#84670B"/>
<path d="M28.3878 35.9395H27.097H25.8061H24.5153H23.2245H21.9363H20.6454H19.3546H18.0638H16.7729H15.4847H14.1939H12.9031H11.6122H10.3214H9.0332V37.2811H10.3214H11.6122H12.9031H14.1939H15.4847H16.7729H18.0638H19.3546H20.6454H21.9363H23.2245H24.5153H25.8061H27.097H28.3878H29.676H30.9668V35.9395H29.676H28.3878Z" fill="#84670B"/>
<path d="M25.8062 33.2505V31.9062V30.5618V29.2202H24.5154V30.5618V31.9062V33.2505V34.5949H25.8062V33.2505Z" fill="#84670B"/>
<path d="M19.3546 34.5949H20.6454H21.9363H23.2245V33.2505V31.9062V30.5618V29.2202H21.9363H20.6454H19.3546H18.0638H16.7729V30.5618V31.9062V33.2505V34.5949H18.0638H19.3546Z" fill="#84670B"/>
<path d="M15.4847 33.2505V31.9062V30.5618V29.2202H14.1938V30.5618V31.9062V33.2505V34.5949H15.4847V33.2505Z" fill="#84670B"/>
<path d="M12.9029 34.5951V33.2507V31.9064V30.562H11.6121V31.9064V33.2507H10.3213V34.5951H11.6121H12.9029Z" fill="#84670B"/>
<path d="M29.676 34.595H28.3878H27.097V33.2506V31.9063V30.5619V29.2203V27.876H25.8061V29.2203V30.5619V31.9063V33.2506V34.595H24.5153V33.2506V31.9063V30.5619V29.2203H23.2245V30.5619V31.9063V33.2506V34.595H21.9363H20.6454H19.3546H18.0638H16.7729V33.2506V31.9063V30.5619V29.2203H15.4847V30.5619V31.9063V33.2506V34.595H14.1939V33.2506V31.9063V30.5619V29.2203V27.876H12.9031V29.2203V30.5619V31.9063V33.2506V34.595H11.6122H10.3214H9.0332V35.9393H10.3214H11.6122H12.9031H14.1939H15.4847H16.7729H18.0638H19.3546H20.6454H21.9363H23.2245H24.5153H25.8061H27.097H28.3878H29.676H30.9668V34.595H29.676Z" fill="#ECC227"/>
<path d="M27.0968 37.2808H25.806H24.5152H23.2243H21.9361H20.6453H19.3545H18.0636H16.7728H15.4846H14.1938H12.9029H11.6121H10.3213V38.6251H11.6121H12.9029H14.1938H15.4846H16.7728H18.0636H19.3545H20.6453H21.9361H23.2243H24.5152H25.806H27.0968H28.3877H29.6759V37.2808H28.3877H27.0968Z" fill="#ECC227"/>
<path d="M30.9668 30.562V31.9064V33.2507V34.5951V35.9394V37.281H32.2576V35.9394V34.5951V33.2507V31.9064V30.562H30.9668Z" fill="#312A1D"/>
<path d="M30.9669 37.2808H29.676V38.6251H30.9669V37.2808Z" fill="#312A1D"/>
<path d="M25.8062 26.5317V27.8761H27.097H28.3878V26.5317H27.097H25.8062Z" fill="#312A1D"/>
<path d="M20.6453 38.6255H19.3545V39.9698H20.6453V38.6255Z" fill="#312A1D"/>
<path d="M14.1939 26.5317H12.9031V27.8761H14.1939V26.5317Z" fill="#312A1D"/>
<path d="M10.3214 37.2808H9.0332V38.6251H10.3214V37.2808Z" fill="#312A1D"/>
<path d="M9.03326 35.9395H7.74243V37.2811H9.03326V35.9395Z" fill="#312A1D"/>
<path d="M27.0969 38.6255H25.806H24.5152H23.2244V39.9698H24.5152H25.806H27.0969H28.3877V38.6255H27.0969Z" fill="#84670B"/>
<path d="M29.6761 38.6255H28.3879V39.9698H27.097H25.8062H24.5154H23.2245V38.6255H21.9363H20.6455V39.9698H21.9363V41.3142V42.6585V44.0001H23.2245H24.5154H25.8062H27.097H28.3879H29.6761V42.6585H28.3879V41.3142H29.6761V39.9698H30.9669V38.6255H29.6761Z" fill="#312A1D"/>
<path d="M15.4848 38.6255H14.194H12.9031H11.6123V39.9698H12.9031H14.194H15.4848H16.773V38.6255H15.4848Z" fill="#84670B"/>
<path d="M18.0638 38.6255H16.7729V39.9698H15.4847H14.1939H12.9031H11.6122V38.6255H10.3214H9.0332V39.9698H10.3214V41.3142H11.6122V42.6585H10.3214V44.0001H11.6122H12.9031H14.1939H15.4847H16.7729H18.0638V42.6585V41.3142V39.9698H19.3546V38.6255H18.0638Z" fill="#312A1D"/>
<path d="M11.6122 27.876V29.2203H10.3214H9.0332V30.5619H10.3214H11.6122H12.9031V29.2203V27.876H11.6122Z" fill="#84670B"/>
<path d="M7.74243 31.9062V33.2506H9.03326H10.3215V31.9062H9.03326H7.74243Z" fill="#84670B"/>
<path d="M11.6121 27.876H10.3213V29.2203H11.6121V27.876Z" fill="#ECC227"/>
<path d="M7.74243 30.562V31.9064H9.03326H10.3215V30.562H9.03326H7.74243Z" fill="#ECC227"/>
<path d="M7.74225 33.2505H6.45142V34.5948H7.74225H9.03308V33.2505H7.74225Z" fill="#B6A28D"/>
<path d="M11.6121 26.5317H10.3213V27.8761H11.6121H12.9029V26.5317H11.6121Z" fill="#312A1D"/>
<path d="M11.6121 31.9064V30.562H10.3213V31.9064V33.2507H11.6121V31.9064Z" fill="#312A1D"/>
<path d="M10.3214 33.2505H9.0332V34.5948H10.3214V33.2505Z" fill="#312A1D"/>
<path d="M10.3214 27.876H9.0332V29.2203H10.3214V27.876Z" fill="#312A1D"/>
<path d="M9.03326 29.2202H7.74243V30.5618H9.03326V29.2202Z" fill="#312A1D"/>
<path d="M6.45142 31.9064V33.2507H7.74225V31.9064V30.562H6.45142V31.9064Z" fill="#312A1D"/>
<path d="M5.16064 34.5948V35.9392H6.45147H7.74231H9.03314V34.5948H7.74231H6.45147V33.2505H5.16064V34.5948Z" fill="#312A1D"/>
<path d="M30.9668 15.7822V17.1238V18.4682V19.8125V21.1569V22.5012V23.8428V25.1872H32.2576V23.8428V22.5012V21.1569V19.8125V18.4682V17.1238V15.7822H30.9668Z" fill="#6E7486"/>
<path d="M36.1302 18.4683H34.8394V19.8126H36.1302H37.4184V18.4683H36.1302Z" fill="#ECC227"/>
<path d="M36.1302 19.8126H34.8394V18.4683H33.5486V19.8126V21.157V22.5013H34.8394H36.1302H37.4184V21.157V19.8126H36.1302Z" fill="white"/>
<path d="M37.4185 18.4683V19.8126V21.157V22.5013H38.7093V21.157V19.8126V18.4683H37.4185Z" fill="#FF0019"/>
<path d="M34.8392 22.5014H33.5484V21.1571V19.8127V18.4684H34.8392H36.1301H37.4183V17.124H36.1301H34.8392H33.5484H32.2576V18.4684V19.8127V21.1571V22.5014V23.843H33.5484H34.8392H36.1301H37.4183V22.5014H36.1301H34.8392Z" fill="#FF0019"/>
<path d="M38.7092 18.4683V19.8126V21.157V22.5013H40.0001V21.157V19.8126V18.4683H38.7092Z" fill="#EA5257"/>
<path d="M38.7093 22.5015H37.4185V23.8431H38.7093V22.5015Z" fill="#EA5257"/>
<path d="M38.7093 17.124H37.4185V18.4684H38.7093V17.124Z" fill="#EA5257"/>
<path d="M36.1301 15.7822H34.8392H33.5484H32.2576V17.1238H33.5484H34.8392H36.1301H37.4183V15.7822H36.1301Z" fill="#EA5257"/>
<path d="M34.8392 23.8428H33.5484H32.2576V25.1871H33.5484H34.8392H36.1301H37.4183V23.8428H36.1301H34.8392Z" fill="#EA5257"/>
<path d="M21.9361 9.06348H20.6453H19.3545H18.0637H16.7728H15.4846V10.4051H16.7728H18.0637H19.3545H20.6453H21.9361H23.2244H24.5152V9.06348H23.2244H21.9361Z" fill="#6E7486"/>
<path d="M18.0637 5.03038V6.37473H19.3546V5.03038V3.68604H18.0637V5.03038Z" fill="#ECC227"/>
<path d="M19.3546 3.68604V5.03038V6.37473H18.0637V7.71908H19.3546H20.6454H21.9362V6.37473V5.03038V3.68604H20.6454H19.3546Z" fill="white"/>
<path d="M21.9363 5.03038V6.37473V7.71908H20.6454H19.3546H18.0638V6.37473V5.03038V3.68604H16.7729V5.03038V6.37473V7.71908V9.06343H18.0638H19.3546H20.6454H21.9363H23.2245V7.71908V6.37473V5.03038V3.68604H21.9363V5.03038Z" fill="#FF0019"/>
<path d="M20.6454 3.68585H21.9362V2.34424H20.6454H19.3546H18.0637V3.68585H19.3546H20.6454Z" fill="#FF0019"/>
<path d="M23.2244 5.03038V6.37473V7.71908V9.06343H24.5152V7.71908V6.37473V5.03038V3.68604H23.2244V5.03038Z" fill="#EA5257"/>
<path d="M23.2245 2.34424H21.9363V3.68585H23.2245V2.34424Z" fill="#EA5257"/>
<path d="M20.6454 1H19.3546H18.0637V2.34435H19.3546H20.6454H21.9362V1H20.6454Z" fill="#EA5257"/>
<path d="M18.0638 2.34424H16.7729V3.68585H18.0638V2.34424Z" fill="#EA5257"/>
<path d="M15.4846 5.03038V6.37473V7.71908V9.06343H16.7728V7.71908V6.37473V5.03038V3.68604H15.4846V5.03038Z" fill="#EA5257"/>
<path d="M7.74243 17.1238V18.4682V19.8125V21.1569V22.5012V23.8428V25.1872H9.03326V23.8428V22.5012V21.1569V19.8125V18.4682V17.1238V15.7822H7.74243V17.1238Z" fill="#6E7486"/>
<path d="M2.58154 21.1572V22.5016H3.86975H5.16058V21.1572H3.86975H2.58154Z" fill="#ECC227"/>
<path d="M3.86975 18.4683H2.58154V19.8126V21.157H3.86975H5.16058V22.5013H6.45141V21.157V19.8126V18.4683H5.16058H3.86975Z" fill="white"/>
<path d="M5.16058 17.124H3.86975H2.58154V18.4684H3.86975H5.16058H6.45141V19.8127V21.1571V22.5014H5.16058H3.86975H2.58154V23.843H3.86975H5.16058H6.45141H7.74224V22.5014V21.1571V19.8127V18.4684V17.124H6.45141H5.16058Z" fill="#FF0019"/>
<path d="M2.5816 19.8126V18.4683H1.29077V19.8126V21.157V22.5013H2.5816V21.157V19.8126Z" fill="#FF0019"/>
<path d="M5.16058 15.7822H3.86975H2.58154V17.1238H3.86975H5.16058H6.45141H7.74224V15.7822H6.45141H5.16058Z" fill="#EA5257"/>
<path d="M3.86975 25.1871H5.16058H6.45141H7.74224V23.8428H6.45141H5.16058H3.86975H2.58154V25.1871H3.86975Z" fill="#EA5257"/>
<path d="M2.5816 22.5015H1.29077V23.8431H2.5816V22.5015Z" fill="#EA5257"/>
<path d="M2.5816 17.124H1.29077V18.4684H2.5816V17.124Z" fill="#EA5257"/>
<path d="M0 19.8126V21.157V22.5013H1.29083V21.157V19.8126V18.4683H0V19.8126Z" fill="#EA5257"/>
<path d="M36.1302 26.5317H34.8394V27.8761H36.1302V26.5317Z" fill="#312A1D"/>
<path d="M36.1302 25.1875H34.8394V26.5318H36.1302V25.1875Z" fill="#312A1D"/>
<path d="M36.1302 23.8428H34.8394V25.1871H36.1302V23.8428Z" fill="#312A1D"/>
<path d="M34.8394 27.876H33.5486V29.2203H34.8394V27.876Z" fill="#312A1D"/>
<path d="M34.8394 26.5317H33.5486V27.8761H34.8394V26.5317Z" fill="#312A1D"/>
<path d="M34.8394 25.1875H33.5486V26.5318H34.8394V25.1875Z" fill="#B6A28D"/>
<path d="M34.8394 23.8428H33.5486V25.1871H34.8394V23.8428Z" fill="#B6A28D"/>
<path d="M33.5484 30.562H32.2576V31.9064H33.5484V30.562Z" fill="#312A1D"/>
<path d="M33.5484 29.2202H32.2576V30.5618H33.5484V29.2202Z" fill="#312A1D"/>
<path d="M33.5484 27.876H32.2576V29.2203H33.5484V27.876Z" fill="#312A1D"/>
<path d="M33.5484 26.5317H32.2576V27.8761H33.5484V26.5317Z" fill="#ECC227"/>
<path d="M33.5484 25.1875H32.2576V26.5318H33.5484V25.1875Z" fill="#84670B"/>
<path d="M33.5484 23.8428H32.2576V25.1871H33.5484V23.8428Z" fill="#312A1D"/>
<path d="M36.1301 22.5015H32.2576V23.8458H36.1301V22.5015Z" fill="#312A1D"/>
<path d="M32.2576 29.2202H30.9668V30.5618H32.2576V29.2202Z" fill="#ECC227"/>
<path d="M32.2576 27.876H30.9668V29.2203H32.2576V27.876Z" fill="#84670B"/>
<path d="M32.2576 26.5317H30.9668V27.8761H32.2576V26.5317Z" fill="#84670B"/>
<path d="M32.2576 25.1875H30.9668V26.5318H32.2576V25.1875Z" fill="#312A1D"/>
<path d="M30.9669 27.876H29.676V29.2203H30.9669V27.876Z" fill="#ECC227"/>
<path d="M30.9669 26.5317H29.676V27.8761H30.9669V26.5317Z" fill="#312A1D"/>
<path d="M29.6759 27.876H28.3877V29.2203H29.6759V27.876Z" fill="#84670B"/>
<path d="M29.6759 26.5317H28.3877V27.8761H29.6759V26.5317Z" fill="#312A1D"/>
<path d="M34.8367 20.4849V21.8292V23.1708H36.1275V21.8292V20.4849H34.8367Z" fill="#EA5257"/>
<path d="M33.5459 24.5152V23.1708V21.8292V20.4849H32.2577V21.8292V23.1708V24.5152H30.9669H29.6761V25.8595H28.3852H27.0944H25.8062H24.5154V27.2066H25.8062H27.0944H28.3852H29.6761H30.9669H32.2577H33.5459H34.8368V25.8595V24.5152H33.5459Z" fill="#B4B4B5"/>
<path d="M33.5459 27.2065H32.2577H30.9669H29.6761H28.3852H27.0944H25.8062H24.5154V28.5509H25.8062H27.0944H28.3852H29.6761H30.9669H32.2577H33.5459H34.8368V27.2065H33.5459Z" fill="#6E7486"/>
<path d="M24.5152 24.5151H23.2244V25.8595V27.2066H24.5152V25.8595V24.5151Z" fill="#6E7486"/>
<path d="M30.9667 17.7988H29.6759V19.1404H28.3851H27.0942V20.4848H25.806H24.5152V21.8291V23.1708H23.2244V24.5151H24.5152V25.8595H25.806H27.0942H28.3851H29.6759V24.5151H30.9667H32.2576V23.1708V21.8291V20.4848V19.1404V17.7988H30.9667Z" fill="white"/>
<path d="M36.1274 20.4847V21.8291V23.1707H34.8366V21.8291V20.4847H36.1274V19.1404H34.8366H33.5458V17.7988V16.4517H32.2576V15.1128H30.9667V16.4517H29.6759V17.7988H30.9667H32.2576V19.1404V20.4847H33.5458V21.8291V23.1707V24.515H34.8366V25.8594V27.2065V28.5508H33.5458H32.2576H30.9667H29.6759H28.3851H27.0942H25.806H24.5152V27.2065H23.2244V28.5508V29.8897H24.5152H25.806H27.0942H28.3851H29.6759H30.9667H32.2576H33.5458H34.8366H36.1274V28.5508V27.2065V25.8594V24.515H37.4183V23.1707V21.8291V20.4847H36.1274Z" fill="#312A1D"/>
<path d="M29.6759 19.1404V17.7988H28.3851H27.0942V19.1404H28.3851H29.6759Z" fill="#312A1D"/>
<path d="M27.0944 20.485V19.1406H25.8062H24.5154V20.485H25.8062H27.0944Z" fill="#312A1D"/>
<path d="M23.2244 24.5152V23.1708H24.5153V21.8292V20.4849H23.2244V21.8292H21.9336V23.1708V24.5152V25.8595V27.2066H23.2244V25.8595V24.5152Z" fill="#312A1D"/>
</g>
</g>
<defs>
<clipPath id="clip0_649_28477">
<rect width="40" height="40" fill="white"/>
</clipPath>
<clipPath id="clip1_649_28477">
<rect width="40" height="43" fill="white" transform="translate(0 1)"/>
</clipPath>
</defs>
</svg>
