<svg width="445" height="110" viewBox="0 0 445 110" fill="none" xmlns="http://www.w3.org/2000/svg">
<g clip-path="url(#clip0_10_920)">
<path d="M112.68 8.94H9.13V100.57H112.68V8.94Z" fill="#B7A38E"/>
<path d="M27.38 85.3H9.13V91.45H27.38V85.3Z" fill="#6A5C52"/>
<path d="M112.68 85.3H94.4301V91.45H112.68V85.3Z" fill="#6A5C52"/>
<path d="M94.43 94.43H27.38V100.58H94.43V94.43Z" fill="#6A5C52"/>
<path d="M85.3 8.94H36.5V17.88H85.3V8.94Z" fill="#312A1D"/>
<path d="M103.55 36.5H112.68V8.94V0H103.55H85.3V8.94H103.55V36.5Z" fill="#312A1D"/>
<path d="M121.81 36.5H112.68V91.44H121.81V36.5Z" fill="#312A1D"/>
<path d="M18.25 8.94H36.5V0H18.25H9.13V8.94V36.5H18.25V8.94Z" fill="#312A1D"/>
<path d="M18.25 91.45H9.13V100.57H18.25H27.38V91.45H18.25Z" fill="#312A1D"/>
<path d="M94.43 100.57H27.38V109.7H94.43V100.57Z" fill="#312A1D"/>
<path d="M94.4301 91.45V100.57H103.55H112.68V91.45H103.55H94.4301Z" fill="#312A1D"/>
<path d="M9.13 36.5H0V91.44H9.13V36.5Z" fill="#312A1D"/>
<path d="M94.43 12.11H91.45V18.25H94.43V21.23H100.57V18.25V12.11H94.43Z" fill="#6A5C52"/>
<path d="M30.55 12.11H27.57H21.42V18.25V21.23H27.57V18.25H30.55V12.11Z" fill="#6A5C52"/>
<path d="M45.81 51.78H36.5V61.09H45.81V51.78Z" fill="#312A1D"/>
<path d="M54.76 60.9H48.61V67.05H54.76V60.9Z" fill="#312A1D"/>
<path d="M73.2 60.9H67.05V67.05H73.2V60.9Z" fill="#312A1D"/>
<path d="M73.19 79.16H67.05V76.17H54.76V79.16H48.61V67.05H42.46V88.28H48.61V91.45H54.76V94.43H57.74V97.41H63.88V94.43H67.05V91.45H73.19V88.28H79.34V67.05H73.19V79.16Z" fill="#312A1D"/>
<path d="M85.3 51.78H75.99V61.09H85.3V51.78Z" fill="#312A1D"/>
<path d="M154 90.09L140.24 76.35V31.72H157.41V69.49L160.84 72.92L164.28 69.49V31.72H181.45V69.59L184.88 72.92L188.31 69.49V31.72H205.48V76.35L191.75 90.09H178L172.85 84.94L167.7 90.09H154Z" fill="#352B1B"/>
<path d="M209.77 90.09V31.72H251V90.09H209.77ZM233.77 72.92V48.92H226.9V72.92H233.77Z" fill="#352B1B"/>
<path d="M255.26 90.09V31.72H269L281.44 44.16L293.89 31.72H307.62V90.09H290.46V59.19L281.46 68.19L272.46 59.19V90.09H255.26Z" fill="#352B1B"/>
<path d="M311.92 90.09V31.72H346.25L353.12 38.59V55.75L346.25 62.62L353.12 69.49V83.22L346.25 90.09H311.92ZM335.92 55.75V48.89H329.05V55.75H335.92ZM335.92 72.92V66.05H329.05V72.92H335.92Z" fill="#352B1B"/>
<path d="M357.41 90.09V31.72H398.61V90.09H381.44V78.28H374.58V90.09H357.41ZM381.41 62.62V48.89H374.55V62.62H381.41Z" fill="#352B1B"/>
<path d="M413.2 90.09V48.89H402.9V31.72H444.1V48.89H433.8V90.09H413.2Z" fill="#352B1B"/>
</g>
<defs>
<clipPath id="clip0_10_920">
<rect width="444.1" height="109.7" fill="white"/>
</clipPath>
</defs>
</svg>