<svg width="116" height="21" viewBox="0 0 116 21" fill="none" xmlns="http://www.w3.org/2000/svg">
<g clip-path="url(#clip0_8451_28341)">
<mask id="mask0_8451_28341" style="mask-type:luminance" maskUnits="userSpaceOnUse" x="0" y="0" width="116" height="21">
<path d="M115.06 0H0.388672V20.1481H115.06V0Z" fill="white"/>
</mask>
<g mask="url(#mask0_8451_28341)">
<path d="M37.5958 6.5228L34.9731 13.998C34.9611 14.0342 34.9374 14.0653 34.9058 14.0864C34.8742 14.1075 34.8366 14.1173 34.7988 14.1142H34.5998C34.5621 14.1156 34.5248 14.1052 34.4932 14.0844C34.4616 14.0636 34.4371 14.0334 34.4232 13.998L32.4568 8.75468L30.4936 13.998C30.4806 14.0335 30.4567 14.064 30.4254 14.0849C30.394 14.1058 30.3569 14.1161 30.3194 14.1142H30.117C30.0794 14.1164 30.0422 14.1062 30.0108 14.0853C29.9794 14.0643 29.9556 14.0337 29.9429 13.998L27.32 6.52583C27.2796 6.40996 27.3232 6.3377 27.4353 6.3377H28.2476C28.2857 6.33399 28.324 6.34348 28.3561 6.3646C28.3882 6.38572 28.4122 6.41722 28.4241 6.45392L30.2939 12.1137L32.1948 6.93038C32.2084 6.89481 32.2328 6.86447 32.2645 6.84367C32.2962 6.82287 32.3336 6.81267 32.3714 6.81451H32.5425C32.58 6.81264 32.6171 6.82287 32.6484 6.8437C32.6798 6.86454 32.7037 6.8949 32.7168 6.93038L34.6745 12.1142L36.5007 6.45446C36.5127 6.41776 36.5367 6.38626 36.5688 6.36513C36.6008 6.34401 36.6391 6.33452 36.6773 6.33823H37.4768C37.5921 6.33823 37.6357 6.4105 37.5951 6.52334" fill="url(#paint0_linear_8451_28341)"/>
<path d="M49.0122 10.1635C49.0171 10.6789 48.9206 11.1902 48.7283 11.6678C48.5359 12.1454 48.2516 12.5799 47.8918 12.9461C47.5319 13.3123 47.1036 13.603 46.6316 13.8014C46.1596 13.9998 45.6533 14.102 45.1419 14.102C44.6305 14.102 44.1242 13.9998 43.6522 13.8014C43.1802 13.603 42.7519 13.3123 42.3921 12.9461C42.0322 12.5799 41.7479 12.1454 41.5556 11.6678C41.3633 11.1902 41.2668 10.6789 41.2717 10.1635C41.2668 9.6481 41.3633 9.13682 41.5556 8.65921C41.7479 8.1816 42.0322 7.74714 42.3921 7.38093C42.7519 7.01472 43.1802 6.72402 43.6522 6.52563C44.1242 6.32724 44.6305 6.2251 45.1419 6.2251C45.6533 6.2251 46.1596 6.32724 46.6316 6.52563C47.1036 6.72402 47.5319 7.01472 47.8918 7.38093C48.2516 7.74714 48.5359 8.1816 48.7283 8.65921C48.9206 9.13682 49.0171 9.6481 49.0122 10.1635ZM47.9389 10.1635C47.9389 8.35115 46.7661 7.10225 45.1419 7.10225C43.5177 7.10225 42.3449 8.35043 42.3449 10.1635C42.3449 11.9766 43.5177 13.2248 45.1419 13.2248C46.7661 13.2248 47.9389 11.9766 47.9389 10.1635Z" fill="url(#paint1_linear_8451_28341)"/>
<path d="M59.2617 13.6788C59.2865 13.7076 59.3022 13.7433 59.3064 13.7813C59.3107 13.8193 59.3034 13.8576 59.2855 13.8913C59.2676 13.925 59.2399 13.9524 59.2062 13.9699C59.1725 13.9873 59.1343 13.9941 59.0967 13.9892H58.3655C58.3417 13.9884 58.3184 13.9817 58.2978 13.9697C58.2771 13.9577 58.2598 13.9407 58.2472 13.9203L56.4117 11.1292H54.4393V13.8322C54.4384 13.8735 54.4218 13.9129 54.3928 13.9421C54.3638 13.9713 54.3247 13.9881 54.2837 13.989H53.5714C53.5304 13.9881 53.4914 13.9713 53.4625 13.942C53.4335 13.9128 53.4169 13.8735 53.416 13.8322V6.4942C53.4169 6.45292 53.4335 6.41356 53.4625 6.38434C53.4914 6.35513 53.5304 6.33831 53.5714 6.3374H56.3809C58.3472 6.3374 59.318 7.37877 59.318 8.73338C59.318 9.8091 58.7081 10.6873 57.4729 11.0039L59.2617 13.6788ZM56.1784 10.251C57.7245 10.251 58.2444 9.60495 58.2444 8.7332C58.2444 7.86448 57.7247 7.21538 56.1784 7.21538H54.4393V10.251H56.1784Z" fill="url(#paint2_linear_8451_28341)"/>
<path d="M71.3426 6.21271H71.5759C71.5966 6.21147 71.6174 6.21467 71.6368 6.22211C71.6563 6.22955 71.6739 6.24106 71.6886 6.25587C71.7033 6.27069 71.7147 6.28848 71.7221 6.30806C71.7295 6.32765 71.7327 6.34859 71.7314 6.36951V13.8324C71.7327 13.8533 71.7295 13.8743 71.7221 13.8939C71.7147 13.9135 71.7033 13.9312 71.6886 13.9461C71.6739 13.9609 71.6563 13.9724 71.6368 13.9798C71.6174 13.9873 71.5966 13.9905 71.5759 13.9892H70.8635C70.8428 13.9905 70.822 13.9873 70.8026 13.9798C70.7831 13.9724 70.7655 13.9609 70.7508 13.9461C70.7361 13.9312 70.7247 13.9135 70.7173 13.8939C70.7099 13.8743 70.7067 13.8533 70.708 13.8324V8.53589L67.8297 12.7348C67.8204 12.7556 67.8053 12.7732 67.7862 12.7855C67.7672 12.7979 67.745 12.8045 67.7224 12.8045C67.6997 12.8045 67.6776 12.7979 67.6585 12.7855C67.6395 12.7732 67.6244 12.7556 67.615 12.7348L64.7368 8.53589V13.8324C64.738 13.8533 64.7348 13.8743 64.7275 13.8939C64.7201 13.9135 64.7087 13.9312 64.694 13.9461C64.6793 13.9609 64.6616 13.9724 64.6422 13.9798C64.6227 13.9873 64.602 13.9905 64.5812 13.9892H63.8687C63.848 13.9905 63.8272 13.9873 63.8078 13.9798C63.7883 13.9724 63.7707 13.9609 63.756 13.9461C63.7413 13.9312 63.7299 13.9135 63.7225 13.8939C63.7151 13.8743 63.7119 13.8533 63.7132 13.8324V6.36898C63.7119 6.34806 63.7151 6.32712 63.7225 6.30753C63.7299 6.28794 63.7413 6.27015 63.756 6.25534C63.7707 6.24052 63.7883 6.22901 63.8078 6.22157C63.8272 6.21413 63.848 6.21093 63.8687 6.21218H64.0983C64.1367 6.21265 64.1744 6.22263 64.208 6.24126C64.2417 6.25988 64.2703 6.28657 64.2913 6.31896L67.7199 11.1451L71.1537 6.3195C71.1737 6.28698 71.2017 6.26013 71.2348 6.24146C71.268 6.22278 71.3053 6.21289 71.3433 6.21271" fill="url(#paint3_linear_8451_28341)"/>
<path d="M83.2774 6.4942V13.8322C83.2766 13.8735 83.2599 13.9129 83.2309 13.9421C83.2019 13.9713 83.1629 13.9881 83.1219 13.989H82.4096C82.3686 13.9881 82.3295 13.9713 82.3005 13.9421C82.2715 13.9129 82.2548 13.8735 82.254 13.8322V10.4897H77.528V13.8322C77.5272 13.8735 77.5105 13.9129 77.4815 13.9421C77.4525 13.9713 77.4134 13.9881 77.3725 13.989H76.66C76.619 13.9881 76.5799 13.9713 76.5509 13.9421C76.5219 13.9129 76.5053 13.8735 76.5044 13.8322V6.4942C76.5053 6.45289 76.5219 6.4135 76.5509 6.38428C76.5799 6.35506 76.619 6.33827 76.66 6.3374H77.3725C77.4134 6.33827 77.4525 6.35506 77.4815 6.38428C77.5105 6.4135 77.5272 6.45289 77.528 6.4942V9.61136H82.2538V6.4942C82.2547 6.45289 82.2713 6.4135 82.3003 6.38428C82.3293 6.35506 82.3684 6.33827 82.4094 6.3374H83.1217C83.1627 6.33827 83.2018 6.35506 83.2307 6.38428C83.2597 6.4135 83.2766 6.45289 83.2774 6.4942Z" fill="url(#paint4_linear_8451_28341)"/>
<path d="M95.4209 10.1635C95.4258 10.6789 95.3293 11.1902 95.1369 11.6678C94.9446 12.1454 94.6603 12.5799 94.3005 12.9461C93.9406 13.3123 93.5123 13.603 93.0403 13.8014C92.5683 13.9998 92.062 14.102 91.5506 14.102C91.0392 14.102 90.5329 13.9998 90.0609 13.8014C89.5889 13.603 89.1606 13.3123 88.8008 12.9461C88.4409 12.5799 88.1566 12.1454 87.9643 11.6678C87.772 11.1902 87.6755 10.6789 87.6804 10.1635C87.6755 9.6481 87.772 9.13682 87.9643 8.65921C88.1566 8.1816 88.4409 7.74714 88.8008 7.38093C89.1606 7.01472 89.5889 6.72402 90.0609 6.52563C90.5329 6.32724 91.0392 6.2251 91.5506 6.2251C92.062 6.2251 92.5683 6.32724 93.0403 6.52563C93.5123 6.72402 93.9406 7.01472 94.3005 7.38093C94.6603 7.74714 94.9446 8.1816 95.1369 8.65921C95.3293 9.13682 95.4258 9.6481 95.4209 10.1635ZM94.3476 10.1635C94.3476 8.35115 93.1748 7.10225 91.5506 7.10225C89.9264 7.10225 88.7536 8.35043 88.7536 10.1635C88.7536 11.9766 89.9264 13.2248 91.5506 13.2248C93.1748 13.2248 94.3476 11.9766 94.3476 10.1635Z" fill="url(#paint5_linear_8451_28341)"/>
<path d="M105.197 13.2678V13.8322C105.199 13.8531 105.195 13.874 105.188 13.8936C105.181 13.9132 105.169 13.931 105.155 13.9458C105.14 13.9606 105.122 13.9721 105.103 13.9796C105.083 13.987 105.063 13.9902 105.042 13.989H99.9798C99.9388 13.9881 99.8997 13.9713 99.8707 13.9421C99.8417 13.9129 99.8251 13.8735 99.8242 13.8322V6.4942C99.8251 6.45289 99.8417 6.4135 99.8707 6.38428C99.8997 6.35506 99.9388 6.33827 99.9798 6.3374H100.692C100.733 6.33831 100.772 6.35513 100.801 6.38434C100.83 6.41356 100.847 6.45292 100.848 6.4942V13.111H105.042C105.062 13.1098 105.083 13.113 105.103 13.1204C105.122 13.1278 105.14 13.1393 105.154 13.1542C105.169 13.169 105.18 13.1868 105.188 13.2064C105.195 13.2259 105.198 13.2469 105.197 13.2678" fill="url(#paint6_linear_8451_28341)"/>
<path d="M115.06 13.2681V13.8324C115.061 13.8534 115.058 13.8743 115.05 13.8939C115.043 13.9135 115.032 13.9313 115.017 13.9461C115.002 13.9609 114.985 13.9724 114.965 13.9798C114.946 13.9873 114.925 13.9905 114.904 13.9892H109.438C109.397 13.9884 109.358 13.9716 109.329 13.9424C109.3 13.9131 109.283 13.8738 109.282 13.8324V6.49447C109.283 6.45315 109.3 6.41377 109.329 6.38455C109.358 6.35532 109.397 6.33853 109.438 6.33766H114.78C114.801 6.33642 114.821 6.33962 114.841 6.34706C114.86 6.3545 114.878 6.36601 114.893 6.38083C114.907 6.39564 114.919 6.41343 114.926 6.43302C114.933 6.45261 114.937 6.47355 114.935 6.49447V7.05884C114.937 7.07976 114.933 7.1007 114.926 7.12029C114.919 7.13988 114.907 7.15767 114.893 7.17248C114.878 7.1873 114.86 7.19881 114.841 7.20625C114.821 7.21369 114.801 7.21689 114.78 7.21564H110.306V9.61162H114.282C114.303 9.61027 114.323 9.6133 114.342 9.6205C114.362 9.6277 114.379 9.63892 114.394 9.65341C114.408 9.66791 114.42 9.68536 114.427 9.70462C114.435 9.72389 114.438 9.74454 114.437 9.76522V10.333C114.439 10.3539 114.436 10.3748 114.428 10.3944C114.421 10.4139 114.409 10.4317 114.395 10.4465C114.38 10.4613 114.362 10.4728 114.343 10.4802C114.324 10.4876 114.303 10.4908 114.282 10.4896H110.306V13.1113H114.904C114.925 13.11 114.946 13.1132 114.965 13.1207C114.985 13.1281 115.002 13.1396 115.017 13.1544C115.032 13.1692 115.043 13.187 115.05 13.2066C115.058 13.2262 115.061 13.2471 115.06 13.2681Z" fill="url(#paint7_linear_8451_28341)"/>
<path d="M10.383 20.1474C8.40634 20.1474 6.47403 19.5566 4.83047 18.4497C3.1869 17.3428 1.9059 15.7695 1.14945 13.9288C0.393002 12.088 0.195081 10.0625 0.580715 8.10844C0.96635 6.15433 1.91822 4.35936 3.31596 2.95053C4.7137 1.54169 6.49452 0.582265 8.43324 0.193568C10.372 -0.195128 12.3815 0.00436476 14.2077 0.766821C16.0339 1.52928 17.5949 2.82045 18.6931 4.47706C19.7912 6.13368 20.3774 8.08133 20.3774 10.0737C20.3743 12.7445 19.3203 15.3049 17.4467 17.1934C15.573 19.0819 13.0328 20.1443 10.383 20.1474ZM10.383 0.446203C8.494 0.446273 6.64739 1.01095 5.07674 2.06882C3.50609 3.12669 2.28192 4.63026 1.55905 6.38937C0.836176 8.14849 0.647058 10.0842 1.01561 11.9516C1.38416 13.8191 2.29383 15.5344 3.62959 16.8808C4.96534 18.2272 6.66719 19.1441 8.51994 19.5155C10.3727 19.887 12.2931 19.6964 14.0384 18.9678C15.7836 18.2392 17.2753 17.0053 18.3249 15.4222C19.3744 13.839 19.9347 11.9778 19.9347 10.0737C19.9317 7.52134 18.9244 5.07436 17.1338 3.26962C15.3431 1.46488 12.9153 0.449741 10.383 0.446915" fill="url(#paint8_linear_8451_28341)"/>
<path d="M11.2016 19.1631C9.42549 19.1631 7.68922 18.6322 6.21239 17.6376C4.73557 16.643 3.58452 15.2293 2.90481 13.5753C2.22509 11.9213 2.04724 10.1013 2.39374 8.34548C2.74024 6.58962 3.59552 4.97675 4.85145 3.71083C6.10737 2.44492 7.70751 1.58281 9.44954 1.23352C11.1916 0.884239 12.9972 1.06347 14.6382 1.74855C16.2792 2.43362 17.6817 3.59378 18.6685 5.08231C19.6553 6.57084 20.1821 8.32089 20.1821 10.1111C20.1795 12.511 19.2325 14.8119 17.5489 16.5088C15.8653 18.2058 13.5826 19.1604 11.2016 19.1631ZM11.2016 1.44722C9.50151 1.44729 7.83957 1.95551 6.426 2.90761C5.01243 3.85971 3.91071 5.21293 3.26016 6.79615C2.60961 8.37937 2.43945 10.1215 2.7712 11.8022C3.10295 13.4829 3.9217 15.0267 5.12393 16.2383C6.32616 17.45 7.85786 18.2751 9.52534 18.6094C11.1928 18.9436 12.9212 18.772 14.4919 18.1161C16.0626 17.4603 17.4051 16.3497 18.3495 14.9248C19.294 13.5 19.7981 11.8248 19.798 10.1111C19.7954 7.81402 18.8889 5.61174 17.2773 3.98749C15.6657 2.36323 13.4807 1.44967 11.2016 1.44722Z" fill="url(#paint9_linear_8451_28341)"/>
<path d="M12.0197 18.1773C10.4442 18.1773 8.90408 17.7065 7.59408 16.8242C6.28408 15.942 5.26305 14.688 4.66011 13.2209C4.05717 11.7538 3.89941 10.1394 4.20677 8.58187C4.51412 7.02436 5.2728 5.5937 6.38685 4.47081C7.5009 3.34791 8.92029 2.58321 10.4655 2.27341C12.0108 1.96361 13.6124 2.12263 15.068 2.73036C16.5236 3.33808 17.7677 4.36721 18.643 5.68761C19.5182 7.00802 19.9854 8.56038 19.9854 10.1484C19.983 12.2771 19.143 14.3179 17.6497 15.8231C16.1564 17.3283 14.1316 18.1749 12.0197 18.1773ZM12.0197 2.44681C10.5085 2.44677 9.03125 2.89842 7.77472 3.74463C6.51818 4.59084 5.53882 5.79362 4.96048 7.20085C4.38214 8.60809 4.23079 10.1566 4.52558 11.6505C4.82036 13.1444 5.54804 14.5167 6.61659 15.5938C7.68515 16.6709 9.04658 17.4044 10.5287 17.7016C12.0109 17.9988 13.5472 17.8463 14.9434 17.2635C16.3395 16.6806 17.5329 15.6935 18.3725 14.427C19.2121 13.1606 19.6603 11.6716 19.6603 10.1484C19.6581 8.10655 18.8524 6.14896 17.42 4.70512C15.9876 3.26128 14.0455 2.44912 12.0197 2.44681Z" fill="url(#paint10_linear_8451_28341)"/>
<path d="M12.8383 17.1922C11.4634 17.1923 10.1193 16.7815 8.97608 16.0116C7.83283 15.2418 6.94175 14.1475 6.41552 12.8672C5.8893 11.5868 5.75157 10.178 6.01975 8.81878C6.28794 7.45956 6.94998 6.21103 7.92217 5.23107C8.89436 4.25111 10.133 3.58374 11.4815 3.31336C12.83 3.04298 14.2278 3.18174 15.498 3.71207C16.7683 4.24241 17.854 5.14051 18.6179 6.2928C19.3817 7.44509 19.7894 8.79981 19.7894 10.1856C19.7872 12.0432 19.0542 13.824 17.7511 15.1375C16.448 16.451 14.6812 17.19 12.8383 17.1922ZM12.8383 3.44675C11.5161 3.44668 10.2235 3.84182 9.12402 4.5822C8.02457 5.32258 7.16762 6.37495 6.66155 7.60623C6.15548 8.83751 6.02301 10.1924 6.2809 11.4996C6.5388 12.8067 7.17546 14.0074 8.11039 14.9499C9.04532 15.8924 10.2365 16.5342 11.5334 16.7943C12.8302 17.0543 14.1744 16.921 15.3961 16.411C16.6177 15.9011 17.6619 15.0374 18.3965 13.9293C19.1312 12.8212 19.5234 11.5184 19.5234 10.1856C19.5216 8.39907 18.8168 6.68617 17.5635 5.42282C16.3102 4.15947 14.6108 3.44869 12.8383 3.44675Z" fill="url(#paint11_linear_8451_28341)"/>
<path d="M13.6564 16.2073C12.4821 16.2074 11.3342 15.8565 10.3577 15.199C9.3813 14.5415 8.62024 13.6069 8.17081 12.5134C7.72137 11.4199 7.60374 10.2166 7.83279 9.05575C8.06185 7.89487 8.6273 6.82853 9.45763 5.99158C10.288 5.15463 11.3459 4.58466 12.4976 4.35375C13.6493 4.12285 14.8431 4.24137 15.928 4.69435C17.0129 5.14732 17.9402 5.91439 18.5925 6.89856C19.2449 7.88272 19.593 9.03977 19.593 10.2234C19.5911 11.8098 18.9651 13.3307 17.8521 14.4525C16.7392 15.5743 15.2303 16.2053 13.6564 16.2073ZM13.6564 4.44737C12.5231 4.44726 11.4152 4.7859 10.4728 5.42046C9.5304 6.05501 8.79587 6.95699 8.36207 8.01232C7.92828 9.06766 7.8147 10.2289 8.03572 11.3493C8.25673 12.4697 8.8024 13.4989 9.60372 14.3067C10.405 15.1145 11.426 15.6647 12.5376 15.8876C13.6491 16.1106 14.8012 15.9963 15.8483 15.5592C16.8954 15.1221 17.7904 14.3819 18.4201 13.4321C19.0498 12.4824 19.386 11.3657 19.386 10.2234C19.3844 8.69216 18.7802 7.22412 17.7061 6.14132C16.632 5.05852 15.1755 4.4492 13.6564 4.44737Z" fill="url(#paint12_linear_8451_28341)"/>
<path d="M14.4751 15.2214C13.5015 15.2215 12.5496 14.9306 11.74 14.3854C10.9303 13.8403 10.2993 13.0654 9.92661 12.1587C9.55394 11.252 9.45639 10.2543 9.64631 9.29179C9.83623 8.32924 10.3051 7.44507 10.9936 6.75112C11.6821 6.05716 12.5593 5.58459 13.5142 5.39316C14.4692 5.20173 15.459 5.30005 16.3586 5.67568C17.2581 6.05131 18.0269 6.68738 18.5678 7.50345C19.1086 8.31951 19.3972 9.27891 19.3971 10.2603C19.3954 11.5755 18.8763 12.8364 17.9536 13.7664C17.0309 14.6964 15.78 15.2197 14.4751 15.2214ZM14.4751 5.447C13.5307 5.44686 12.6075 5.72899 11.8222 6.25772C11.0369 6.78644 10.4248 7.53802 10.0633 8.41739C9.70175 9.29677 9.60706 10.2645 9.79118 11.1981C9.9753 12.1317 10.43 12.9893 11.0976 13.6625C11.7653 14.3357 12.6161 14.7941 13.5423 14.98C14.4685 15.1658 15.4286 15.0706 16.3012 14.7064C17.1737 14.3423 17.9195 13.7255 18.4443 12.9341C18.969 12.1427 19.2492 11.2122 19.2493 10.2603C19.2481 8.98434 18.7447 7.76095 17.8497 6.85858C16.9547 5.95621 15.7411 5.44856 14.4751 5.447Z" fill="url(#paint13_linear_8451_28341)"/>
</g>
</g>
<defs>
<linearGradient id="paint0_linear_8451_28341" x1="32.4576" y1="6.33691" x2="32.4576" y2="14.1148" gradientUnits="userSpaceOnUse">
<stop stop-color="#E72850"/>
<stop offset="1" stop-color="#3D2670"/>
</linearGradient>
<linearGradient id="paint1_linear_8451_28341" x1="45.1419" y1="6.2251" x2="45.1419" y2="14.102" gradientUnits="userSpaceOnUse">
<stop stop-color="#E72850"/>
<stop offset="1" stop-color="#3D2670"/>
</linearGradient>
<linearGradient id="paint2_linear_8451_28341" x1="56.367" y1="6.3374" x2="56.367" y2="13.9907" gradientUnits="userSpaceOnUse">
<stop stop-color="#E72850"/>
<stop offset="1" stop-color="#3D2670"/>
</linearGradient>
<linearGradient id="paint3_linear_8451_28341" x1="67.7223" y1="6.21191" x2="67.7223" y2="13.9895" gradientUnits="userSpaceOnUse">
<stop stop-color="#E72850"/>
<stop offset="1" stop-color="#3D2670"/>
</linearGradient>
<linearGradient id="paint4_linear_8451_28341" x1="79.8909" y1="6.3374" x2="79.8909" y2="13.989" gradientUnits="userSpaceOnUse">
<stop stop-color="#E72850"/>
<stop offset="1" stop-color="#3D2670"/>
</linearGradient>
<linearGradient id="paint5_linear_8451_28341" x1="91.5506" y1="6.2251" x2="91.5506" y2="14.102" gradientUnits="userSpaceOnUse">
<stop stop-color="#E72850"/>
<stop offset="1" stop-color="#3D2670"/>
</linearGradient>
<linearGradient id="paint6_linear_8451_28341" x1="102.511" y1="6.3374" x2="102.511" y2="13.9892" gradientUnits="userSpaceOnUse">
<stop stop-color="#E72850"/>
<stop offset="1" stop-color="#3D2670"/>
</linearGradient>
<linearGradient id="paint7_linear_8451_28341" x1="112.171" y1="6.3374" x2="112.171" y2="13.9895" gradientUnits="userSpaceOnUse">
<stop stop-color="#E72850"/>
<stop offset="1" stop-color="#3D2670"/>
</linearGradient>
<linearGradient id="paint8_linear_8451_28341" x1="10.383" y1="0" x2="10.383" y2="20.1474" gradientUnits="userSpaceOnUse">
<stop stop-color="#E72850"/>
<stop offset="1" stop-color="#3D2670"/>
</linearGradient>
<linearGradient id="paint9_linear_8451_28341" x1="11.2016" y1="1.05957" x2="11.2016" y2="19.1631" gradientUnits="userSpaceOnUse">
<stop stop-color="#E72850"/>
<stop offset="1" stop-color="#3D2670"/>
</linearGradient>
<linearGradient id="paint10_linear_8451_28341" x1="12.0195" y1="2.11914" x2="12.0195" y2="18.1773" gradientUnits="userSpaceOnUse">
<stop stop-color="#E72850"/>
<stop offset="1" stop-color="#3D2670"/>
</linearGradient>
<linearGradient id="paint11_linear_8451_28341" x1="12.8378" y1="3.17871" x2="12.8378" y2="17.1922" gradientUnits="userSpaceOnUse">
<stop stop-color="#E72850"/>
<stop offset="1" stop-color="#3D2670"/>
</linearGradient>
<linearGradient id="paint12_linear_8451_28341" x1="13.6559" y1="4.23877" x2="13.6559" y2="16.2073" gradientUnits="userSpaceOnUse">
<stop stop-color="#E72850"/>
<stop offset="1" stop-color="#3D2670"/>
</linearGradient>
<linearGradient id="paint13_linear_8451_28341" x1="14.4744" y1="5.29785" x2="14.4744" y2="15.2214" gradientUnits="userSpaceOnUse">
<stop stop-color="#E72850"/>
<stop offset="1" stop-color="#3D2670"/>
</linearGradient>
<clipPath id="clip0_8451_28341">
<rect width="114.671" height="20.1481" fill="white" transform="translate(0.388672)"/>
</clipPath>
</defs>
</svg>
